<?xml version="1.0" encoding="UTF-8"?>
<svg id="Layer_1" xmlns="http://www.w3.org/2000/svg" version="1.1" viewBox="0 0 877 659">
  <!-- Generator: Adobe Illustrator 29.1.0, SVG Export Plug-In . SVG Version: 2.1.0 Build 142)  -->
  <defs>
    <style>
      .st0 {
        fill: #3978ad;
      }

      .st1 {
        fill: #aaa;
      }

      .st2 {
        fill: #fff;
      }

      .st3 {
        fill: #231f1f;
      }
    </style>
  </defs>
  <g>
    <path class="st3" d="M379.3,193.2v169.8s65.3-7.6,65.3,56.2v-160.7c0-60.7-65.3-65.3-65.3-65.3"/>
    <path class="st1" d="M409.9,181.2v149.4s36,7,36,70.7.2-118.6.2-152.8c0-60.7-36.2-67.3-36.2-67.3"/>
  </g>
  <path class="st0" d="M447.1,256.9v154.5s31.3-87.8,163.1,25.3c0-41,.3-144.4.3-178.5-130.2-94.9-163.4-1.3-163.4-1.3"/>
  <path class="st0" d="M84,372.6h29.2v-37.4h16.7c25.7,0,40.1-11.7,40.1-38.3s-16.8-37.1-41-37.1h-44.9v112.9ZM113.2,283.1h5c11.5,0,21.3.2,21.3,14.6s-10.6,14-21.3,14h-5v-28.7Z"/>
  <path class="st0" d="M181.7,296v46c0,25.2,18,32.9,41.2,32.9s41.2-7.7,41.2-32.9v-46h-27.5v40.8c0,9.7-2.4,16.5-13.8,16.5s-13.7-6.8-13.7-16.5v-40.8h-27.5Z"/>
  <path class="st0" d="M280.5,372.6h27.5v-8.5h.3c4.9,7.5,14.2,10.9,23.1,10.9,22.8,0,38.6-18.9,38.6-41s-15.7-40.9-38.3-40.9-17.9,3.4-23.7,10.2v-54.7h-27.5v124ZM324.4,316.4c11.1,0,17.5,8.1,17.5,17.6s-6.4,17.5-17.5,17.5-17.5-7.6-17.5-17.5,6.4-17.6,17.5-17.6h0Z"/>
  <polygon class="st2" points="459.5 372.6 488.7 372.6 498.1 307.6 498.4 307.6 524.3 372.6 536 372.6 563.1 307.6 563.4 307.6 571.7 372.6 601 372.6 583.9 259.7 554.7 259.7 530.5 320 507.6 259.7 478.7 259.7 459.5 372.6"/>
  <path class="st0" d="M649.6,322.9c1.6-8,8.2-12.3,16.2-12.3s14.1,4.9,15.4,12.3h-31.6ZM706.5,335.8c0-26.3-15.5-42.8-42.3-42.8s-42.7,15.4-42.7,41,19.1,40.9,44.7,40.9,34.9-8.2,39.3-26.3h-26.3c-3,5.1-7.2,7-13,7-11.3,0-17.1-6-17.1-17h57.5v-2.8h0Z"/>
  <path class="st0" d="M776.5,372.6h27.5v-124h-27.5v54.7c-5.7-6.9-14.9-10.2-23.7-10.2-22.7,0-38.3,18.9-38.3,40.9s15.9,41,38.6,41,18.3-3.4,23.1-10.9h.3v8.5h0ZM760.1,316.4c11.1,0,17.5,8.1,17.5,17.6s-6.4,17.5-17.5,17.5-17.5-7.6-17.5-17.5,6.4-17.6,17.5-17.6h0Z"/>
</svg>